# xmcd
#
# Track frame offsets: 
#        150
#        15938
#        36522
#        55970
#        79879
#        95198
#        109611
#        124138
#        139576
#        160622
#        180443
#        202535
#
# Disc length: 2944 seconds
#
# Revision: 0
# Processed by: cddbd v1.5.2PL0 Copyright (c) Steve Scherf et al.
# Submitted via: ExactAudioCopy v0.99pb4
#
DISCID=910b7e0c
DTITLE=Bjørn Berge - Fretwork
DYEAR=2009
DGENRE=Blues Rock
TTITLE0=Crazy Times
TTITLE1=These Streets
TTITLE2=Fretwork
TTITLE3=Drifting Blues
TTITLE4=Zebra
TTITLE5=Skijumper
TTITLE6=Killing Floor
TTITLE7=Endless
TTITLE8=Mountain Boogie
TTITLE9=Travelling Song
TTITLE10=You're so Fine
TTITLE11=Paris
EXTD=
EXTT0=
EXTT1=
EXTT2=
EXTT3=
EXTT4=
EXTT5=
EXTT6=
EXTT7=
EXTT8=
EXTT9=
EXTT10=
EXTT11=
PLAYORDER=
